<?xml version="1.0" encoding="UTF-8" standalone="no"?>
<!DOCTYPE svg PUBLIC "-//W3C//DTD SVG 1.1//EN"
 "http://www.w3.org/Graphics/SVG/1.1/DTD/svg11.dtd">
<!-- Generated by graphviz version 12.2.0 (20241103.1931)
 -->
<!-- Pages: 1 -->
<svg width="478pt" height="464pt"
 viewBox="0.00 0.00 478.00 463.50" xmlns="http://www.w3.org/2000/svg" xmlns:xlink="http://www.w3.org/1999/xlink">
<g id="graph0" class="graph" transform="scale(1 1) rotate(0) translate(4 459.5)">
<polygon fill="white" stroke="none" points="-4,4 -4,-459.5 474,-459.5 474,4 -4,4"/>
<!-- 2588467601520 -->
<g id="node1" class="node">
<title>2588467601520</title>
<polygon fill="#caff70" stroke="black" points="337,-32.75 219,-32.75 219,0 337,0 337,-32.75"/>
<text text-anchor="middle" x="278" y="-7.25" font-family="monospace" font-size="10.00"> (1, 512, 16, 16)</text>
</g>
<!-- 2588521901376 -->
<g id="node2" class="node">
<title>2588521901376</title>
<polygon fill="lightgrey" stroke="black" points="322,-89.5 234,-89.5 234,-68.75 322,-68.75 322,-89.5"/>
<text text-anchor="middle" x="278" y="-76" font-family="monospace" font-size="10.00">MulBackward0</text>
</g>
<!-- 2588521901376&#45;&gt;2588467601520 -->
<g id="edge13" class="edge">
<title>2588521901376&#45;&gt;2588467601520</title>
<path fill="none" stroke="black" d="M278,-68.36C278,-61.89 278,-53.05 278,-44.55"/>
<polygon fill="black" stroke="black" points="281.5,-44.55 278,-34.55 274.5,-44.55 281.5,-44.55"/>
</g>
<!-- 2588521901568 -->
<g id="node3" class="node">
<title>2588521901568</title>
<polygon fill="lightgrey" stroke="black" points="334,-146.25 222,-146.25 222,-125.5 334,-125.5 334,-146.25"/>
<text text-anchor="middle" x="278" y="-132.75" font-family="monospace" font-size="10.00">SigmoidBackward0</text>
</g>
<!-- 2588521901568&#45;&gt;2588521901376 -->
<g id="edge1" class="edge">
<title>2588521901568&#45;&gt;2588521901376</title>
<path fill="none" stroke="black" d="M278,-125.09C278,-118.47 278,-109.47 278,-101.27"/>
<polygon fill="black" stroke="black" points="281.5,-101.34 278,-91.34 274.5,-101.34 281.5,-101.34"/>
</g>
<!-- 2588521901424 -->
<g id="node4" class="node">
<title>2588521901424</title>
<polygon fill="lightgrey" stroke="black" points="346,-203 210,-203 210,-182.25 346,-182.25 346,-203"/>
<text text-anchor="middle" x="278" y="-189.5" font-family="monospace" font-size="10.00">ConvolutionBackward0</text>
</g>
<!-- 2588521901424&#45;&gt;2588521901568 -->
<g id="edge2" class="edge">
<title>2588521901424&#45;&gt;2588521901568</title>
<path fill="none" stroke="black" d="M278,-181.84C278,-175.22 278,-166.22 278,-158.02"/>
<polygon fill="black" stroke="black" points="281.5,-158.09 278,-148.09 274.5,-158.09 281.5,-158.09"/>
</g>
<!-- 2588521902192 -->
<g id="node5" class="node">
<title>2588521902192</title>
<polygon fill="lightgrey" stroke="black" points="193,-259.75 99,-259.75 99,-239 193,-239 193,-259.75"/>
<text text-anchor="middle" x="146" y="-246.25" font-family="monospace" font-size="10.00">ReluBackward0</text>
</g>
<!-- 2588521902192&#45;&gt;2588521901424 -->
<g id="edge3" class="edge">
<title>2588521902192&#45;&gt;2588521901424</title>
<path fill="none" stroke="black" d="M169.6,-238.59C190.34,-229.98 220.77,-217.36 244.11,-207.68"/>
<polygon fill="black" stroke="black" points="245.31,-210.97 253.21,-203.91 242.63,-204.51 245.31,-210.97"/>
</g>
<!-- 2588521902384 -->
<g id="node6" class="node">
<title>2588521902384</title>
<polygon fill="lightgrey" stroke="black" points="198,-322.88 62,-322.88 62,-302.12 198,-302.12 198,-322.88"/>
<text text-anchor="middle" x="130" y="-309.38" font-family="monospace" font-size="10.00">ConvolutionBackward0</text>
</g>
<!-- 2588521902384&#45;&gt;2588521902192 -->
<g id="edge4" class="edge">
<title>2588521902384&#45;&gt;2588521902192</title>
<path fill="none" stroke="black" d="M132.57,-301.68C134.73,-293.43 137.89,-281.37 140.6,-271.01"/>
<polygon fill="black" stroke="black" points="143.96,-271.99 143.11,-261.43 137.19,-270.22 143.96,-271.99"/>
</g>
<!-- 2588521902480 -->
<g id="node7" class="node">
<title>2588521902480</title>
<polygon fill="lightgrey" stroke="black" points="121,-386 21,-386 21,-365.25 121,-365.25 121,-386"/>
<text text-anchor="middle" x="71" y="-372.5" font-family="monospace" font-size="10.00">AccumulateGrad</text>
</g>
<!-- 2588521902480&#45;&gt;2588521902384 -->
<g id="edge5" class="edge">
<title>2588521902480&#45;&gt;2588521902384</title>
<path fill="none" stroke="black" d="M80.48,-364.8C89.22,-355.75 102.4,-342.1 112.96,-331.15"/>
<polygon fill="black" stroke="black" points="115.26,-333.81 119.69,-324.18 110.22,-328.95 115.26,-333.81"/>
</g>
<!-- 2588467601440 -->
<g id="node8" class="node">
<title>2588467601440</title>
<polygon fill="lightblue" stroke="black" points="124,-455.5 0,-455.5 0,-422 124,-422 124,-455.5"/>
<text text-anchor="middle" x="62" y="-442" font-family="monospace" font-size="10.00">attention.0.weight</text>
<text text-anchor="middle" x="62" y="-429.25" font-family="monospace" font-size="10.00"> (64, 512, 1, 1)</text>
</g>
<!-- 2588467601440&#45;&gt;2588521902480 -->
<g id="edge6" class="edge">
<title>2588467601440&#45;&gt;2588521902480</title>
<path fill="none" stroke="black" d="M64.36,-421.69C65.44,-414.35 66.74,-405.57 67.9,-397.71"/>
<polygon fill="black" stroke="black" points="71.34,-398.37 69.33,-387.96 64.41,-397.35 71.34,-398.37"/>
</g>
<!-- 2588521902432 -->
<g id="node9" class="node">
<title>2588521902432</title>
<polygon fill="lightgrey" stroke="black" points="243,-386 143,-386 143,-365.25 243,-365.25 243,-386"/>
<text text-anchor="middle" x="193" y="-372.5" font-family="monospace" font-size="10.00">AccumulateGrad</text>
</g>
<!-- 2588521902432&#45;&gt;2588521902384 -->
<g id="edge7" class="edge">
<title>2588521902432&#45;&gt;2588521902384</title>
<path fill="none" stroke="black" d="M182.88,-364.8C173.45,-355.66 159.2,-341.83 147.86,-330.83"/>
<polygon fill="black" stroke="black" points="150.59,-328.6 140.98,-324.15 145.72,-333.62 150.59,-328.6"/>
</g>
<!-- 2588467594960 -->
<g id="node10" class="node">
<title>2588467594960</title>
<polygon fill="lightblue" stroke="black" points="254,-455.5 142,-455.5 142,-422 254,-422 254,-455.5"/>
<text text-anchor="middle" x="198" y="-442" font-family="monospace" font-size="10.00">attention.0.bias</text>
<text text-anchor="middle" x="198" y="-429.25" font-family="monospace" font-size="10.00"> (64)</text>
</g>
<!-- 2588467594960&#45;&gt;2588521902432 -->
<g id="edge8" class="edge">
<title>2588467594960&#45;&gt;2588521902432</title>
<path fill="none" stroke="black" d="M196.69,-421.69C196.09,-414.35 195.37,-405.57 194.72,-397.71"/>
<polygon fill="black" stroke="black" points="198.23,-397.66 193.93,-387.98 191.26,-398.23 198.23,-397.66"/>
</g>
<!-- 2588521901040 -->
<g id="node11" class="node">
<title>2588521901040</title>
<polygon fill="lightgrey" stroke="black" points="328,-259.75 228,-259.75 228,-239 328,-239 328,-259.75"/>
<text text-anchor="middle" x="278" y="-246.25" font-family="monospace" font-size="10.00">AccumulateGrad</text>
</g>
<!-- 2588521901040&#45;&gt;2588521901424 -->
<g id="edge9" class="edge">
<title>2588521901040&#45;&gt;2588521901424</title>
<path fill="none" stroke="black" d="M278,-238.59C278,-231.97 278,-222.97 278,-214.77"/>
<polygon fill="black" stroke="black" points="281.5,-214.84 278,-204.84 274.5,-214.84 281.5,-214.84"/>
</g>
<!-- 2588467595120 -->
<g id="node12" class="node">
<title>2588467595120</title>
<polygon fill="lightblue" stroke="black" points="340,-329.25 216,-329.25 216,-295.75 340,-295.75 340,-329.25"/>
<text text-anchor="middle" x="278" y="-315.75" font-family="monospace" font-size="10.00">attention.2.weight</text>
<text text-anchor="middle" x="278" y="-303" font-family="monospace" font-size="10.00"> (512, 64, 1, 1)</text>
</g>
<!-- 2588467595120&#45;&gt;2588521901040 -->
<g id="edge10" class="edge">
<title>2588467595120&#45;&gt;2588521901040</title>
<path fill="none" stroke="black" d="M278,-295.44C278,-288.1 278,-279.32 278,-271.46"/>
<polygon fill="black" stroke="black" points="281.5,-271.73 278,-261.73 274.5,-271.73 281.5,-271.73"/>
</g>
<!-- 2588521901808 -->
<g id="node13" class="node">
<title>2588521901808</title>
<polygon fill="lightgrey" stroke="black" points="455,-259.75 355,-259.75 355,-239 455,-239 455,-259.75"/>
<text text-anchor="middle" x="405" y="-246.25" font-family="monospace" font-size="10.00">AccumulateGrad</text>
</g>
<!-- 2588521901808&#45;&gt;2588521901424 -->
<g id="edge11" class="edge">
<title>2588521901808&#45;&gt;2588521901424</title>
<path fill="none" stroke="black" d="M382.29,-238.59C362.43,-230.02 333.33,-217.48 310.91,-207.81"/>
<polygon fill="black" stroke="black" points="312.47,-204.67 301.9,-203.93 309.7,-211.1 312.47,-204.67"/>
</g>
<!-- 2588467608400 -->
<g id="node14" class="node">
<title>2588467608400</title>
<polygon fill="lightblue" stroke="black" points="470,-329.25 358,-329.25 358,-295.75 470,-295.75 470,-329.25"/>
<text text-anchor="middle" x="414" y="-315.75" font-family="monospace" font-size="10.00">attention.2.bias</text>
<text text-anchor="middle" x="414" y="-303" font-family="monospace" font-size="10.00"> (512)</text>
</g>
<!-- 2588467608400&#45;&gt;2588521901808 -->
<g id="edge12" class="edge">
<title>2588467608400&#45;&gt;2588521901808</title>
<path fill="none" stroke="black" d="M411.64,-295.44C410.56,-288.1 409.26,-279.32 408.1,-271.46"/>
<polygon fill="black" stroke="black" points="411.59,-271.1 406.67,-261.71 404.66,-272.12 411.59,-271.1"/>
</g>
</g>
</svg>
