<?xml version="1.0" encoding="UTF-8" standalone="no"?>
<!DOCTYPE svg PUBLIC "-//W3C//DTD SVG 1.1//EN"
 "http://www.w3.org/Graphics/SVG/1.1/DTD/svg11.dtd">
<!-- Generated by graphviz version 12.2.0 (20241103.1931)
 -->
<!-- Pages: 1 -->
<svg width="809pt" height="603pt"
 viewBox="0.00 0.00 809.00 602.50" xmlns="http://www.w3.org/2000/svg" xmlns:xlink="http://www.w3.org/1999/xlink">
<g id="graph0" class="graph" transform="scale(1 1) rotate(0) translate(4 598.5)">
<polygon fill="white" stroke="none" points="-4,4 -4,-598.5 805,-598.5 805,4 -4,4"/>
<!-- 2588467608480 -->
<g id="node1" class="node">
<title>2588467608480</title>
<polygon fill="#caff70" stroke="black" points="686,-32.75 580,-32.75 580,0 686,0 686,-32.75"/>
<text text-anchor="middle" x="633" y="-7.25" font-family="monospace" font-size="10.00"> (1, 1, 29, 29)</text>
</g>
<!-- 2588521900416 -->
<g id="node2" class="node">
<title>2588521900416</title>
<polygon fill="lightgrey" stroke="black" points="689,-89.5 577,-89.5 577,-68.75 689,-68.75 689,-89.5"/>
<text text-anchor="middle" x="633" y="-76" font-family="monospace" font-size="10.00">SigmoidBackward0</text>
</g>
<!-- 2588521900416&#45;&gt;2588467608480 -->
<g id="edge23" class="edge">
<title>2588521900416&#45;&gt;2588467608480</title>
<path fill="none" stroke="black" d="M633,-68.36C633,-61.89 633,-53.05 633,-44.55"/>
<polygon fill="black" stroke="black" points="636.5,-44.55 633,-34.55 629.5,-44.55 636.5,-44.55"/>
</g>
<!-- 2588521900224 -->
<g id="node3" class="node">
<title>2588521900224</title>
<polygon fill="lightgrey" stroke="black" points="701,-146.25 565,-146.25 565,-125.5 701,-125.5 701,-146.25"/>
<text text-anchor="middle" x="633" y="-132.75" font-family="monospace" font-size="10.00">ConvolutionBackward0</text>
</g>
<!-- 2588521900224&#45;&gt;2588521900416 -->
<g id="edge1" class="edge">
<title>2588521900224&#45;&gt;2588521900416</title>
<path fill="none" stroke="black" d="M633,-125.09C633,-118.47 633,-109.47 633,-101.27"/>
<polygon fill="black" stroke="black" points="636.5,-101.34 633,-91.34 629.5,-101.34 636.5,-101.34"/>
</g>
<!-- 2588521897920 -->
<g id="node4" class="node">
<title>2588521897920</title>
<polygon fill="lightgrey" stroke="black" points="555,-203 431,-203 431,-182.25 555,-182.25 555,-203"/>
<text text-anchor="middle" x="493" y="-189.5" font-family="monospace" font-size="10.00">LeakyReluBackward1</text>
</g>
<!-- 2588521897920&#45;&gt;2588521900224 -->
<g id="edge2" class="edge">
<title>2588521897920&#45;&gt;2588521900224</title>
<path fill="none" stroke="black" d="M518.03,-181.84C540.23,-173.16 572.89,-160.38 597.73,-150.67"/>
<polygon fill="black" stroke="black" points="598.74,-154.03 606.78,-147.13 596.19,-147.51 598.74,-154.03"/>
</g>
<!-- 2588521900704 -->
<g id="node5" class="node">
<title>2588521900704</title>
<polygon fill="lightgrey" stroke="black" points="564,-266.12 404,-266.12 404,-245.38 564,-245.38 564,-266.12"/>
<text text-anchor="middle" x="484" y="-252.62" font-family="monospace" font-size="10.00">NativeBatchNormBackward0</text>
</g>
<!-- 2588521900704&#45;&gt;2588521897920 -->
<g id="edge3" class="edge">
<title>2588521900704&#45;&gt;2588521897920</title>
<path fill="none" stroke="black" d="M485.45,-244.93C486.65,-236.77 488.4,-224.88 489.91,-214.6"/>
<polygon fill="black" stroke="black" points="493.37,-215.12 491.37,-204.72 486.45,-214.1 493.37,-215.12"/>
</g>
<!-- 2588521900800 -->
<g id="node6" class="node">
<title>2588521900800</title>
<polygon fill="lightgrey" stroke="black" points="368,-329.25 232,-329.25 232,-308.5 368,-308.5 368,-329.25"/>
<text text-anchor="middle" x="300" y="-315.75" font-family="monospace" font-size="10.00">ConvolutionBackward0</text>
</g>
<!-- 2588521900800&#45;&gt;2588521900704 -->
<g id="edge4" class="edge">
<title>2588521900800&#45;&gt;2588521900704</title>
<path fill="none" stroke="black" d="M329.56,-308.05C360.55,-297.76 409.42,-281.53 443.87,-270.08"/>
<polygon fill="black" stroke="black" points="444.69,-273.5 453.07,-267.02 442.48,-266.85 444.69,-273.5"/>
</g>
<!-- 2588521900992 -->
<g id="node7" class="node">
<title>2588521900992</title>
<polygon fill="lightgrey" stroke="black" points="177,-392.38 53,-392.38 53,-371.62 177,-371.62 177,-392.38"/>
<text text-anchor="middle" x="115" y="-378.88" font-family="monospace" font-size="10.00">LeakyReluBackward1</text>
</g>
<!-- 2588521900992&#45;&gt;2588521900800 -->
<g id="edge5" class="edge">
<title>2588521900992&#45;&gt;2588521900800</title>
<path fill="none" stroke="black" d="M144.72,-371.18C175.88,-360.89 225.01,-344.65 259.65,-333.21"/>
<polygon fill="black" stroke="black" points="260.52,-336.61 268.91,-330.15 258.32,-329.96 260.52,-336.61"/>
</g>
<!-- 2588521901184 -->
<g id="node8" class="node">
<title>2588521901184</title>
<polygon fill="lightgrey" stroke="black" points="177,-461.88 41,-461.88 41,-441.12 177,-441.12 177,-461.88"/>
<text text-anchor="middle" x="109" y="-448.38" font-family="monospace" font-size="10.00">ConvolutionBackward0</text>
</g>
<!-- 2588521901184&#45;&gt;2588521900992 -->
<g id="edge6" class="edge">
<title>2588521901184&#45;&gt;2588521900992</title>
<path fill="none" stroke="black" d="M109.86,-440.83C110.72,-431.21 112.06,-416.13 113.15,-403.79"/>
<polygon fill="black" stroke="black" points="116.61,-404.43 114.01,-394.16 109.64,-403.81 116.61,-404.43"/>
</g>
<!-- 2588521901280 -->
<g id="node9" class="node">
<title>2588521901280</title>
<polygon fill="lightgrey" stroke="black" points="100,-525 0,-525 0,-504.25 100,-504.25 100,-525"/>
<text text-anchor="middle" x="50" y="-511.5" font-family="monospace" font-size="10.00">AccumulateGrad</text>
</g>
<!-- 2588521901280&#45;&gt;2588521901184 -->
<g id="edge7" class="edge">
<title>2588521901280&#45;&gt;2588521901184</title>
<path fill="none" stroke="black" d="M59.48,-503.8C68.22,-494.75 81.4,-481.1 91.96,-470.15"/>
<polygon fill="black" stroke="black" points="94.26,-472.81 98.69,-463.18 89.22,-467.95 94.26,-472.81"/>
</g>
<!-- 2588467608720 -->
<g id="node10" class="node">
<title>2588467608720</title>
<polygon fill="lightblue" stroke="black" points="100,-594.5 0,-594.5 0,-561 100,-561 100,-594.5"/>
<text text-anchor="middle" x="50" y="-581" font-family="monospace" font-size="10.00">model.0.weight</text>
<text text-anchor="middle" x="50" y="-568.25" font-family="monospace" font-size="10.00"> (64, 3, 4, 4)</text>
</g>
<!-- 2588467608720&#45;&gt;2588521901280 -->
<g id="edge8" class="edge">
<title>2588467608720&#45;&gt;2588521901280</title>
<path fill="none" stroke="black" d="M50,-560.69C50,-553.35 50,-544.57 50,-536.71"/>
<polygon fill="black" stroke="black" points="53.5,-536.98 50,-526.98 46.5,-536.98 53.5,-536.98"/>
</g>
<!-- 2588521901232 -->
<g id="node11" class="node">
<title>2588521901232</title>
<polygon fill="lightgrey" stroke="black" points="218,-525 118,-525 118,-504.25 218,-504.25 218,-525"/>
<text text-anchor="middle" x="168" y="-511.5" font-family="monospace" font-size="10.00">AccumulateGrad</text>
</g>
<!-- 2588521901232&#45;&gt;2588521901184 -->
<g id="edge9" class="edge">
<title>2588521901232&#45;&gt;2588521901184</title>
<path fill="none" stroke="black" d="M158.52,-503.8C149.78,-494.75 136.6,-481.1 126.04,-470.15"/>
<polygon fill="black" stroke="black" points="128.78,-467.95 119.31,-463.18 123.74,-472.81 128.78,-467.95"/>
</g>
<!-- 2588467602000 -->
<g id="node12" class="node">
<title>2588467602000</title>
<polygon fill="lightblue" stroke="black" points="212,-594.5 124,-594.5 124,-561 212,-561 212,-594.5"/>
<text text-anchor="middle" x="168" y="-581" font-family="monospace" font-size="10.00">model.0.bias</text>
<text text-anchor="middle" x="168" y="-568.25" font-family="monospace" font-size="10.00"> (64)</text>
</g>
<!-- 2588467602000&#45;&gt;2588521901232 -->
<g id="edge10" class="edge">
<title>2588467602000&#45;&gt;2588521901232</title>
<path fill="none" stroke="black" d="M168,-560.69C168,-553.35 168,-544.57 168,-536.71"/>
<polygon fill="black" stroke="black" points="171.5,-536.98 168,-526.98 164.5,-536.98 171.5,-536.98"/>
</g>
<!-- 2588521900944 -->
<g id="node13" class="node">
<title>2588521900944</title>
<polygon fill="lightgrey" stroke="black" points="301,-392.38 201,-392.38 201,-371.62 301,-371.62 301,-392.38"/>
<text text-anchor="middle" x="251" y="-378.88" font-family="monospace" font-size="10.00">AccumulateGrad</text>
</g>
<!-- 2588521900944&#45;&gt;2588521900800 -->
<g id="edge11" class="edge">
<title>2588521900944&#45;&gt;2588521900800</title>
<path fill="none" stroke="black" d="M258.87,-371.18C265.99,-362.3 276.64,-349.01 285.32,-338.18"/>
<polygon fill="black" stroke="black" points="287.84,-340.64 291.36,-330.65 282.38,-336.26 287.84,-340.64"/>
</g>
<!-- 2588467601840 -->
<g id="node14" class="node">
<title>2588467601840</title>
<polygon fill="lightblue" stroke="black" points="307,-468.25 195,-468.25 195,-434.75 307,-434.75 307,-468.25"/>
<text text-anchor="middle" x="251" y="-454.75" font-family="monospace" font-size="10.00">model.2.weight</text>
<text text-anchor="middle" x="251" y="-442" font-family="monospace" font-size="10.00"> (128, 64, 4, 4)</text>
</g>
<!-- 2588467601840&#45;&gt;2588521900944 -->
<g id="edge12" class="edge">
<title>2588467601840&#45;&gt;2588521900944</title>
<path fill="none" stroke="black" d="M251,-434.5C251,-425.4 251,-413.89 251,-404.07"/>
<polygon fill="black" stroke="black" points="254.5,-404.34 251,-394.34 247.5,-404.34 254.5,-404.34"/>
</g>
<!-- 2588521900896 -->
<g id="node15" class="node">
<title>2588521900896</title>
<polygon fill="lightgrey" stroke="black" points="419,-392.38 319,-392.38 319,-371.62 419,-371.62 419,-392.38"/>
<text text-anchor="middle" x="369" y="-378.88" font-family="monospace" font-size="10.00">AccumulateGrad</text>
</g>
<!-- 2588521900896&#45;&gt;2588521900800 -->
<g id="edge13" class="edge">
<title>2588521900896&#45;&gt;2588521900800</title>
<path fill="none" stroke="black" d="M357.91,-371.18C347.49,-361.95 331.67,-347.93 319.2,-336.88"/>
<polygon fill="black" stroke="black" points="321.77,-334.48 311.96,-330.47 317.13,-339.72 321.77,-334.48"/>
</g>
<!-- 2588467602080 -->
<g id="node16" class="node">
<title>2588467602080</title>
<polygon fill="lightblue" stroke="black" points="413,-468.25 325,-468.25 325,-434.75 413,-434.75 413,-468.25"/>
<text text-anchor="middle" x="369" y="-454.75" font-family="monospace" font-size="10.00">model.2.bias</text>
<text text-anchor="middle" x="369" y="-442" font-family="monospace" font-size="10.00"> (128)</text>
</g>
<!-- 2588467602080&#45;&gt;2588521900896 -->
<g id="edge14" class="edge">
<title>2588467602080&#45;&gt;2588521900896</title>
<path fill="none" stroke="black" d="M369,-434.5C369,-425.4 369,-413.89 369,-404.07"/>
<polygon fill="black" stroke="black" points="372.5,-404.34 369,-394.34 365.5,-404.34 372.5,-404.34"/>
</g>
<!-- 2588521900752 -->
<g id="node17" class="node">
<title>2588521900752</title>
<polygon fill="lightgrey" stroke="black" points="534,-329.25 434,-329.25 434,-308.5 534,-308.5 534,-329.25"/>
<text text-anchor="middle" x="484" y="-315.75" font-family="monospace" font-size="10.00">AccumulateGrad</text>
</g>
<!-- 2588521900752&#45;&gt;2588521900704 -->
<g id="edge15" class="edge">
<title>2588521900752&#45;&gt;2588521900704</title>
<path fill="none" stroke="black" d="M484,-308.05C484,-299.9 484,-288.01 484,-277.73"/>
<polygon fill="black" stroke="black" points="487.5,-277.86 484,-267.86 480.5,-277.86 487.5,-277.86"/>
</g>
<!-- 2588467596240 -->
<g id="node18" class="node">
<title>2588467596240</title>
<polygon fill="lightblue" stroke="black" points="537,-398.75 437,-398.75 437,-365.25 537,-365.25 537,-398.75"/>
<text text-anchor="middle" x="487" y="-385.25" font-family="monospace" font-size="10.00">model.3.weight</text>
<text text-anchor="middle" x="487" y="-372.5" font-family="monospace" font-size="10.00"> (128)</text>
</g>
<!-- 2588467596240&#45;&gt;2588521900752 -->
<g id="edge16" class="edge">
<title>2588467596240&#45;&gt;2588521900752</title>
<path fill="none" stroke="black" d="M486.21,-364.94C485.85,-357.6 485.42,-348.82 485.03,-340.96"/>
<polygon fill="black" stroke="black" points="488.54,-341.05 484.56,-331.23 481.55,-341.39 488.54,-341.05"/>
</g>
<!-- 2588521900608 -->
<g id="node19" class="node">
<title>2588521900608</title>
<polygon fill="lightgrey" stroke="black" points="652,-329.25 552,-329.25 552,-308.5 652,-308.5 652,-329.25"/>
<text text-anchor="middle" x="602" y="-315.75" font-family="monospace" font-size="10.00">AccumulateGrad</text>
</g>
<!-- 2588521900608&#45;&gt;2588521900704 -->
<g id="edge17" class="edge">
<title>2588521900608&#45;&gt;2588521900704</title>
<path fill="none" stroke="black" d="M583.04,-308.05C564.12,-298.25 534.79,-283.06 512.95,-271.75"/>
<polygon fill="black" stroke="black" points="514.74,-268.73 504.26,-267.24 511.53,-274.95 514.74,-268.73"/>
</g>
<!-- 2588467609360 -->
<g id="node20" class="node">
<title>2588467609360</title>
<polygon fill="lightblue" stroke="black" points="646,-398.75 558,-398.75 558,-365.25 646,-365.25 646,-398.75"/>
<text text-anchor="middle" x="602" y="-385.25" font-family="monospace" font-size="10.00">model.3.bias</text>
<text text-anchor="middle" x="602" y="-372.5" font-family="monospace" font-size="10.00"> (128)</text>
</g>
<!-- 2588467609360&#45;&gt;2588521900608 -->
<g id="edge18" class="edge">
<title>2588467609360&#45;&gt;2588521900608</title>
<path fill="none" stroke="black" d="M602,-364.94C602,-357.6 602,-348.82 602,-340.96"/>
<polygon fill="black" stroke="black" points="605.5,-341.23 602,-331.23 598.5,-341.23 605.5,-341.23"/>
</g>
<!-- 2588521897200 -->
<g id="node21" class="node">
<title>2588521897200</title>
<polygon fill="lightgrey" stroke="black" points="683,-203 583,-203 583,-182.25 683,-182.25 683,-203"/>
<text text-anchor="middle" x="633" y="-189.5" font-family="monospace" font-size="10.00">AccumulateGrad</text>
</g>
<!-- 2588521897200&#45;&gt;2588521900224 -->
<g id="edge19" class="edge">
<title>2588521897200&#45;&gt;2588521900224</title>
<path fill="none" stroke="black" d="M633,-181.84C633,-175.22 633,-166.22 633,-158.02"/>
<polygon fill="black" stroke="black" points="636.5,-158.09 633,-148.09 629.5,-158.09 636.5,-158.09"/>
</g>
<!-- 2588467608560 -->
<g id="node22" class="node">
<title>2588467608560</title>
<polygon fill="lightblue" stroke="black" points="688,-272.5 582,-272.5 582,-239 688,-239 688,-272.5"/>
<text text-anchor="middle" x="635" y="-259" font-family="monospace" font-size="10.00">model.5.weight</text>
<text text-anchor="middle" x="635" y="-246.25" font-family="monospace" font-size="10.00"> (1, 128, 4, 4)</text>
</g>
<!-- 2588467608560&#45;&gt;2588521897200 -->
<g id="edge20" class="edge">
<title>2588467608560&#45;&gt;2588521897200</title>
<path fill="none" stroke="black" d="M634.47,-238.69C634.23,-231.35 633.95,-222.57 633.69,-214.71"/>
<polygon fill="black" stroke="black" points="637.2,-214.86 633.37,-204.98 630.2,-215.09 637.2,-214.86"/>
</g>
<!-- 2588521898832 -->
<g id="node23" class="node">
<title>2588521898832</title>
<polygon fill="lightgrey" stroke="black" points="801,-203 701,-203 701,-182.25 801,-182.25 801,-203"/>
<text text-anchor="middle" x="751" y="-189.5" font-family="monospace" font-size="10.00">AccumulateGrad</text>
</g>
<!-- 2588521898832&#45;&gt;2588521900224 -->
<g id="edge21" class="edge">
<title>2588521898832&#45;&gt;2588521900224</title>
<path fill="none" stroke="black" d="M729.9,-181.84C711.61,-173.35 684.9,-160.95 664.14,-151.33"/>
<polygon fill="black" stroke="black" points="665.83,-148.25 655.29,-147.22 662.88,-154.6 665.83,-148.25"/>
</g>
<!-- 2588467595520 -->
<g id="node24" class="node">
<title>2588467595520</title>
<polygon fill="lightblue" stroke="black" points="795,-272.5 707,-272.5 707,-239 795,-239 795,-272.5"/>
<text text-anchor="middle" x="751" y="-259" font-family="monospace" font-size="10.00">model.5.bias</text>
<text text-anchor="middle" x="751" y="-246.25" font-family="monospace" font-size="10.00"> (1)</text>
</g>
<!-- 2588467595520&#45;&gt;2588521898832 -->
<g id="edge22" class="edge">
<title>2588467595520&#45;&gt;2588521898832</title>
<path fill="none" stroke="black" d="M751,-238.69C751,-231.35 751,-222.57 751,-214.71"/>
<polygon fill="black" stroke="black" points="754.5,-214.98 751,-204.98 747.5,-214.98 754.5,-214.98"/>
</g>
</g>
</svg>
